# xmcd CD database file
# Copyright (C) 1996 Ti Kan
#
# Track frame offsets:
#	187
#	25240
#	44017
#	60082
#	75430
#	91517
#	105270
#	117542
#	131322
#	145745
#	159040
#	172837
#
# Disc length: 2440 seconds
#
# Revision: 1
# Processed by: cddbd v1.4b41PL1 Copyright (c) Steve Scherf et al.
# Submitted via: EasyCD 2.21 - (C) 1996 Greg Leichner
#
DISCID=7c09860c
DTITLE=Soundtrack - My Heros Have Always Been Cowboys
DYEAR=1900
DGENRE=
TTITLE0=Going Home
TTITLE1=(You're My) Soul And Inspiration - THE OAK RIDGE BOYS
TTITLE2=Five Minutes - LORRIE MORGAN
TTITLE3=Seein' My Father In Me - PAUL OVERSTREET
TTITLE4=When Somebody Love You - RESTLESS HEART
TTITLE5=Nothing News - CLINT BLACK
TTITLE6=Hard To Say No - FOSTER and LLOYD
TTITLE7=I'm Over You - KEITH WHITLEY
TTITLE8=Old Flame - ALABAMA
TTITLE9=Perfect - BALLIE AND THE BOYS
TTITLE10=My Heros Have Always Been Cowboys - WILLIE NELSON
TTITLE11=In Training - ORIGINAL MUSIC SCORE
EXTD=
EXTT0=
EXTT1=
EXTT2=
EXTT3=
EXTT4=
EXTT5=
EXTT6=
EXTT7=
EXTT8=
EXTT9=
EXTT10=
EXTT11=
PLAYORDER=
